<?xml version="1.0" encoding="UTF-8" standalone="no"?>
<!-- Created with Inkscape (http://www.inkscape.org/) -->

<svg
   xmlns:dc="http://purl.org/dc/elements/1.1/"
   xmlns:cc="http://creativecommons.org/ns#"
   xmlns:rdf="http://www.w3.org/1999/02/22-rdf-syntax-ns#"
   xmlns:svg="http://www.w3.org/2000/svg"
   xmlns="http://www.w3.org/2000/svg"
   xmlns:sodipodi="http://sodipodi.sourceforge.net/DTD/sodipodi-0.dtd"
   xmlns:inkscape="http://www.inkscape.org/namespaces/inkscape"
   id="svg3344"
   version="1.1"
   inkscape:version="0.91 r13725"
   width="950"
   height="950"
   viewBox="0 0 950 950"
   sodipodi:docname="logo.svg"
   inkscape:export-filename="/home/srv/Documents/Dreamfinity/Logo/PNG/logo_1024"
   inkscape:export-xdpi="97.010002"
   inkscape:export-ydpi="97.010002">
  <metadata
     id="metadata3350">
    <rdf:RDF>
      <cc:Work
         rdf:about="">
        <dc:format>image/svg+xml</dc:format>
        <dc:type
           rdf:resource="http://purl.org/dc/dcmitype/StillImage" />
        <dc:title />
      </cc:Work>
    </rdf:RDF>
  </metadata>
  <defs
     id="defs3348" />
  <sodipodi:namedview
     pagecolor="#ffffff"
     bordercolor="#666666"
     borderopacity="1"
     objecttolerance="10"
     gridtolerance="10"
     guidetolerance="10"
     inkscape:pageopacity="0"
     inkscape:pageshadow="2"
     inkscape:window-width="1920"
     inkscape:window-height="1043"
     id="namedview3346"
     showgrid="false"
     inkscape:zoom="0.68012483"
     inkscape:cx="95.658628"
     inkscape:cy="436.84462"
     inkscape:window-x="0"
     inkscape:window-y="0"
     inkscape:window-maximized="1"
     inkscape:current-layer="layer4"
     showborder="true"
     inkscape:showpageshadow="false">
    <inkscape:grid
       type="xygrid"
       id="grid3427"
       spacingx="0.5"
       spacingy="0.5"
       originx="5"
       snapvisiblegridlinesonly="true"
       dotted="false"
       originy="5"
       empspacing="5" />
  </sodipodi:namedview>
  <g
     inkscape:groupmode="layer"
     id="layer4"
     inkscape:label="gear"
     transform="translate(0,-1.25)"
     style="display:inline">
    <g
       transform="translate(-990.84388,1.8417165)"
       id="g7657">
      <path
         style="fill:#4b5887"
         d="m 1460.6657,940.82044 c -6.5839,-0.26192 -9.3563,-0.27828 -19.2911,-1.42862 -11.8631,-1.37362 -19.0637,-4.37855 -24.0537,-14.25542 -6.0825,-8.70054 -4.535,-37.71406 -4.535,-37.71406 l 0.7693,-30.1154 c 0.285,-11.15639 -10.4743,-12.57459 -46.4486,-24.28715 -34.9285,-9.41187 -40.4035,-14.76514 -48.5068,-2.92123 -2.0861,3.04899 -10.7199,16.88396 -17.5434,27.198 -4.6267,6.99344 -17.2944,28.26103 -24.9008,32.1876 -9.4051,4.8551 -13.2993,4.23576 -40.7806,-11.6307 -26.7766,-15.45965 -31.6662,-19.25419 -35.7915,-27.7758 -4.4188,-9.12797 -3.2413,-12.66761 14.3957,-43.27511 15.0818,-26.17328 15.7703,-27.67512 15.7591,-34.375 -0.017,-10.33529 -4.3043,-16.508 -27.1016,-39.02298 -22.9261,-22.64222 -27.2205,-25.38812 -38.4087,-24.55942 -7.0344,0.52105 -9.6498,1.74618 -34.972,16.38228 -29.8436,17.24942 -31.8955,17.91098 -41.353,13.33268 -8.0799,-3.91139 -11.981,-8.9693 -26.9839,-34.98566 -15.0615,-26.11785 -16.6899,-30.87003 -13.3321,-38.9065 3.5365,-8.46399 9.3331,-13.18825 32.819,-26.7476 34.5291,-19.93499 40.4457,-28.92022 33.0006,-50.1156 -1.4265,-4.06075 -4.7768,-16.05241 -7.4453,-26.64814 -5.3832,-21.37487 -6.6812,-26.55938 -18.0051,-32.29755 -11.3302,-4.6701 -24.629,-4.0625 -36.8193,-4.0625 -34.0063,0 -36.0902,-1.65311 -42.394,-8.03255 -6.3038,-6.37944 -7.7429,-8.50902 -7.7429,-42.59245 0,-34.08343 0.5518,-37.39616 7.4471,-44.07138 6.3037,-5.3442 8.6835,-6.55362 42.6898,-6.55362 14.485,-1.16489 23.3537,1.22434 36.8193,-4.0625 11.0815,-6.19348 12.6219,-10.92267 18.0051,-32.29755 2.6685,-10.59573 6.0628,-22.63995 7.543,-26.76495 5.0761,-14.1466 2.9578,-24.01019 -7.3262,-34.11436 -2.5949,-2.5496 -13.6666,-9.69814 -24.6036,-15.88564 -21.8775,-12.37693 -28.1991,-17.28157 -32.113,-24.91474 -5.0087,-9.76866 -4.1613,-12.64284 12.0358,-40.82276 14.7416,-25.64753 18.4923,-30.43121 27.5354,-35.11895 8.4921,-4.4021 12.4498,-3.08228 42.0245,14.01453 39.4499,22.80544 39.3393,22.82148 72.7792,-10.5549 20.8981,-20.85833 24.9418,-26.15202 26.5581,-34.76734 1.2608,-6.72075 -0.7875,-11.54266 -16.072,-37.83584 -16.1228,-27.73509 -17.6398,-31.37595 -15.8472,-38.03332 2.7821,-10.331909 8.2053,-15.074699 35.2985,-30.869728 24.6884,-14.393111 25.5484,-14.78041 32.8915,-14.813239 6.6725,-0.02983 8.255,0.478368 13.75,4.41549 5.3557,3.837308 8.0281,7.580531 19.4313,27.217759 7.2719,12.522708 15.1254,24.732728 17.4522,27.133378 16.1061,14.16617 23.0529,10.58143 39.6336,5.62375 9.0522,-2.72301 21.07,-5.88529 26.706,-7.0273 11.4921,-2.32858 23.1703,-8.38567 27.2709,-14.144397 3.9753,-5.58277 4.8923,-15.128108 4.8846,-29.354067 0.5328,-15.539322 -0.061,-41.664907 1.6118,-47.102879 0,0 3.9522,-10.615436 17.4531,-13.7146171 13.5009,-3.0991806 55.8771,-2.4975193 90.5162,2.0156641 162.216,21.135354 303.6726,128.764876 367.875,279.903506 45.639,118.04916 45.615,253.69731 0.2114,364.375 -31.7417,74.97992 -83.1514,141.04501 -147.5092,189.5598 -61.3931,46.27984 -130.2661,75.96626 -205.4243,88.54434 -30.8631,5.16507 -64.6545,7.27474 -79.8622,6.66974 z m 38.7078,-182.94533 c 63.2076,-8.2331 118.8196,-34.90915 163.9589,-78.64811 24.3464,-23.59101 41.6322,-47.45282 57.0876,-78.80544 23.9475,-48.57922 33.22,-99.8445 28.0354,-155 -7.9667,-84.75288 -55.7312,-163.53947 -127.7327,-210.69254 -47.2558,-30.9474 -98.9156,-46.18246 -156.5977,-46.18246 -56.7429,0 -109.0981,15.19812 -154.627,44.88651 -101.7887,66.37408 -150.509,186.1937 -123.9863,304.92384 8.5761,38.39111 27.5436,78.65711 51.9942,110.37792 46.0672,59.76499 114.0802,98.74534 190.3691,109.10645 17.4366,2.36814 53.4466,2.38517 71.4985,0.0339 z m -54.3091,-79.32937 c -71.1969,-7.48377 -132.9367,-50.51154 -164.1135,-114.37418 -49.4607,-101.31549 -7.2064,-223.55959 94.4241,-273.17406 48.4135,-23.63477 102.9929,-27.1544 154.5886,-9.96889 20.3088,6.76449 45.3925,19.85909 59.2852,30.94899 34.5729,27.59808 59.4358,64.05807 71.5905,104.98346 6.0273,20.29431 8.0616,34.88876 8.0616,57.8355 0,22.94674 -2.0343,37.54119 -8.0616,57.8355 -22.2579,74.94341 -85.4145,130.91907 -162.3393,143.88125 -14.8552,2.50317 -39.8961,3.45561 -53.4356,2.03243 z m 41.9209,-95.09147 c 21.9707,-4.50597 38.6193,-13.647 55.378,-30.40576 22.1112,-22.11117 32.3818,-46.72954 32.3818,-77.61824 0,-30.8887 -10.2706,-55.50707 -32.3818,-77.61824 -22.1111,-22.11115 -46.7295,-32.38176 -77.6182,-32.38176 -30.8887,0 -55.5071,10.27061 -77.6182,32.38176 -22.1112,22.11117 -32.3818,46.72954 -32.3818,77.61824 0,30.8887 10.2706,55.50707 32.3818,77.61824 16.4535,16.45353 33.1986,25.76772 54.4932,30.31107 11.7511,2.50719 33.382,2.55234 45.3652,0.0946 z"
         id="path7659"
         inkscape:connector-curvature="0"
         sodipodi:nodetypes="ssccscsssssssssssssssscczscccssssssssssssssssccsscczsccssscsssssssssccsssssssssscsssssssscc" />
    </g>
  </g>
  <g
     inkscape:groupmode="layer"
     id="layer1"
     inkscape:label="runes"
     transform="translate(0,-1.25)"
     style="display:inline">
    <g
       id="g4310">
      <path
         sodipodi:nodetypes="ccccccccccccccccccccccccccccccccccccccccccccccccccccccccccccccccccccccccccccccccccccccccccccccccccccccccccccccccccc"
         style="fill:#ffafff;stroke:#7c428c;stroke-width:4"
         inkscape:connector-curvature="0"
         id="runes"
         d="m 508.706,55.493737 c 0.275,0.0125 14.3375,0.925 14.3375,0.925 l 23.85,15.2125 -7.8375,12.9625 -16.1375,-9.6625 c 0,0 -0.7625,33.037503 -3.3,76.025003 -22.4625,-8.3 -38.8625,-16 -38.8625,-16 l 5.2375,-13.5375 c 0,0 9.525,4.5125 19.3125,7.4875 0,0 2.8,-35.937503 3.4,-73.412503 z m 121.6,25.95 15.2,-1.3 c 0,0 3.2,34.762503 3.6875,73.812503 l -13.475,2.1625 c 0,0 -19.85,-9.05 -44,-18.3875 0,0 6.3125,-15.9875 6.3125,-16.0125 20.0625,7.65 35.225,14.325 35.225,14.325 0,0 0,-26.825 -2.95,-54.600003 z m 101.7875,67.437503 c 0.0125,0 15.3375,2.6125 15.35,2.6125 -6.75,36.6125 -14.2125,70.45 -14.2125,70.45 l -12.7,-1.2375 c 0,0 -18.225,-14.475 -37.2625,-27.425 l 9.4375,-11.8875 c 0,0 15.0125,9.2 28.8125,20.625 0,0 6.0125,-25.7875 10.575,-53.1375 z m -91.5625,18.975 c 0,0 -6.3625,14.7625 -6.3625,14.775 -26.2875,-11.85 -51.125,-21.3625 -51.125,-21.3625 l 5.525,-15.1 c 0,0 25.825,9.9375 51.9625,21.6875 z m 48.95,48.75 c 8.6375,-7.15 18.75,3.9875 10,11.6 -8.75,6.7 -18.175,-5 -10,-11.6 z m 143.225,32.6125 c 5.5375,6.425 9.775,14.3125 9.775,14.3125 0,0 -40.5,23.7875 -85,47.2875 l -6.35,-12.2 c 0,0 3.5625,-22.8875 3.2875,-44.625 l 13.975,0.25 c 0,0 0.625,17.2 -1.8375,32.5375 32.0375,-16.5875 66.0875,-37.5125 66.15,-37.5625 z m -43.5375,136.35 c 0,0 12.9,-20.5125 16.5875,-39.975 32.025,-11.1625 60.4625,-24.7875 60.4625,-24.7875 l 4.9875,12.9625 c -25.1125,11.9 -53.2875,21.3625 -53.2875,21.3625 0,0 -2.65,13.325 -10.4625,26.9375 l 74.325,-17.85 4.675,15.3 -95.9375,21.4 z m 67.8875,101.8 c 0,0 13.825,-20.275 26.325,-44.3375 l 12.7875,6.9875 c 0,0 -17.725,32.6125 -32.1625,53.25 -31.25,-3.475 -62.3375,-6.225 -62.3375,-6.225 l 0.8875,-12.4375 c 0,0 15.425,-19.0125 25.65,-37.8875 l 12.1625,6.1375 c 0,0 -5.8,12.6125 -20.9125,31.7125 z m -13.525,86.7375 -31.05,24.925 -10.5625,-9.3125 25.8125,-19.8125 -34.0875,-11.1375 5.2625,-15.8 86.6375,27.275 -6.1,14.4375 -32.9625,29.2 -10.1125,-10.45 26.475,-23.4125 z m -45.4375,78.6125 c 0,0 -20.4625,16.025 -47.05,25.6875 l -7.9625,-13.2375 c 27.275,-9.95 46.8125,-23.5125 46.8125,-23.5125 z m 22.1375,15.75 c 0,0 -22.1625,16.6 -47.1875,26.5625 l -8.6,-13.875 c 24.65,-9.275 47.6625,-27.0125 47.6625,-27.0125 z m 23.375,15.075 c 0,0 -20.4375,14.5 -45.9125,25.575 l -8.2875,-12.5 c 25.6375,-11.075 45.925,-26.6875 45.925,-26.6875 z m -93.2875,121.2375 -12.1875,9.85 -57.85,-78.8375 c 0,0 9.525,-7.3 9.5375,-7.3 24.5,-0.1375 43.625,-4.15 43.625,-4.15 l 4.375,13.5625 c 0,0 -16.7125,4.225 -36.0875,3.9 z m -115.65,-14.7875 0.025,-18.4625 14.375,1.5625 c 0,0 2.9625,49.2125 -4.6875,96.25 0,0 -8.125,0.4625 -15.9375,-0.625 6.0875,-35.7875 5.7875,-64.375 5.7875,-64.375 0,0 -19.225,-4.125 -34.85,-11.4 l 0.9375,-14.225 c 17.9375,7.3875 34.35,11.275 34.35,11.275 z M 507.481,901.00624 c 0,0 -17.4375,-5.025 -17.45,-5.025 21.6625,-44.975 29.7,-92.7125 29.7,-92.7125 l 16.3375,3.825 -5,21.25 c 0,0 15.4625,29.6875 38.2875,62.1875 -7.35,3.4375 -15.9,6.3375 -15.9,6.3375 l -28.175,-45.4 c 0,0 -7.65,25.625 -17.8,49.5375 z" />
      <path
         sodipodi:nodetypes="ccc"
         style="fill:#ffafff;stroke:#7c428c;stroke-width:4"
         inkscape:connector-curvature="0"
         id="runes-7-9"
         d="m 784.49193,249.95433 c 8.6375,-7.15 18.75,3.9875 10,11.6 -8.75,6.7 -18.175,-5 -10,-11.6 z" />
      <path
         sodipodi:nodetypes="ccc"
         style="fill:#ffafff;stroke:#7c428c;stroke-width:4"
         inkscape:connector-curvature="0"
         id="runes-7-3"
         d="m 846.42909,461.49638 c 8.6375,-7.15 18.75,3.9875 10,11.6 -8.75,6.7 -18.175,-5 -10,-11.6 z" />
      <path
         sodipodi:nodetypes="ccc"
         style="fill:#ffafff;stroke:#7c428c;stroke-width:4"
         inkscape:connector-curvature="0"
         id="runes-7-6"
         d="m 733.58216,758.50068 c 8.6375,-7.15 18.75,3.9875 10,11.6 -8.75,6.7 -18.175,-5 -10,-11.6 z" />
      <path
         sodipodi:nodetypes="ccc"
         style="fill:#ffafff;stroke:#7c428c;stroke-width:4"
         inkscape:connector-curvature="0"
         id="runes-7-0"
         d="m 657.67698,836.97892 c 8.6375,-7.15 18.75,3.9875 10,11.6 -8.75,6.7 -18.175,-5 -10,-11.6 z" />
      <path
         sodipodi:nodetypes="ccc"
         style="fill:#ffafff;stroke:#7c428c;stroke-width:4"
         inkscape:connector-curvature="0"
         id="runes-7-61"
         d="m 524.79696,883.29395 c 8.6375,-7.15 18.75,3.9875 10,11.6 -8.75,6.7 -18.175,-5 -10,-11.6 z" />
    </g>
  </g>
</svg>
