<?xml version="1.0" encoding="UTF-8" standalone="no"?>
<!-- Created with Inkscape (http://www.inkscape.org/) -->

<svg
   xmlns:dc="http://purl.org/dc/elements/1.1/"
   xmlns:cc="http://creativecommons.org/ns#"
   xmlns:rdf="http://www.w3.org/1999/02/22-rdf-syntax-ns#"
   xmlns:svg="http://www.w3.org/2000/svg"
   xmlns="http://www.w3.org/2000/svg"
   xmlns:sodipodi="http://sodipodi.sourceforge.net/DTD/sodipodi-0.dtd"
   xmlns:inkscape="http://www.inkscape.org/namespaces/inkscape"
   id="svg3344"
   version="1.1"
   inkscape:version="0.91 r13725"
   width="950"
   height="950"
   viewBox="0 0 950 950"
   sodipodi:docname="logo_white.svg"
   inkscape:export-filename="/home/srv/Documents/Dreamfinity/Logo/PNG/logo_white_1024.png"
   inkscape:export-xdpi="90"
   inkscape:export-ydpi="90">
  <metadata
     id="metadata3350">
    <rdf:RDF>
      <cc:Work
         rdf:about="">
        <dc:format>image/svg+xml</dc:format>
        <dc:type
           rdf:resource="http://purl.org/dc/dcmitype/StillImage" />
        <dc:title />
      </cc:Work>
    </rdf:RDF>
  </metadata>
  <defs
     id="defs3348" />
  <sodipodi:namedview
     pagecolor="#ffffff"
     bordercolor="#666666"
     borderopacity="1"
     objecttolerance="10"
     gridtolerance="10"
     guidetolerance="10"
     inkscape:pageopacity="0"
     inkscape:pageshadow="2"
     inkscape:window-width="1920"
     inkscape:window-height="1043"
     id="namedview3346"
     showgrid="false"
     inkscape:zoom="0.68012483"
     inkscape:cx="64.046778"
     inkscape:cy="461.84003"
     inkscape:window-x="0"
     inkscape:window-y="0"
     inkscape:window-maximized="1"
     inkscape:current-layer="layer4"
     showborder="true"
     inkscape:showpageshadow="false">
    <inkscape:grid
       type="xygrid"
       id="grid3427"
       spacingx="0.5"
       spacingy="0.5"
       originx="5"
       snapvisiblegridlinesonly="true"
       dotted="false"
       originy="5"
       empspacing="5" />
  </sodipodi:namedview>
  <g
     inkscape:groupmode="layer"
     id="layer4"
     inkscape:label="gear"
     transform="translate(0,-1.25)"
     style="display:inline">
    <path
       style="fill:#ffffff;fill-opacity:1"
       d="M 475.25 8.4199219 C 461.35546 8.3414424 449.92229 8.9878587 444.01562 10.34375 C 430.51473 13.442931 426.5625 24.058594 426.5625 24.058594 C 424.8897 29.496566 425.48202 55.622787 424.94922 71.162109 C 424.95692 85.388068 424.03975 94.932879 420.06445 100.51562 C 415.96385 106.27435 404.28702 112.33158 392.79492 114.66016 C 387.15892 115.80217 375.14009 118.96449 366.08789 121.6875 C 349.50719 126.64518 342.56118 130.23062 326.45508 116.06445 C 324.12828 113.6638 316.27385 101.4524 309.00195 88.929688 C 297.59875 69.29246 294.92797 65.550199 289.57227 61.712891 C 284.07727 57.775769 282.49477 57.267045 275.82227 57.296875 C 268.47917 57.329704 267.61809 57.716264 242.92969 72.109375 C 215.83649 87.904404 210.41296 92.648551 207.63086 102.98047 C 205.83826 109.63784 207.35572 113.27858 223.47852 141.01367 C 238.76302 167.30685 240.81158 172.12886 239.55078 178.84961 C 237.93448 187.46493 233.89029 192.75886 212.99219 213.61719 C 179.55229 246.99357 179.66279 246.97732 140.21289 224.17188 C 110.63819 207.07507 106.68155 205.75415 98.189453 210.15625 C 89.146353 214.84399 85.395897 219.62786 70.654297 245.27539 C 54.457197 273.45531 53.608488 276.329 58.617188 286.09766 C 62.531087 293.73083 68.852969 298.63674 90.730469 311.01367 C 101.66747 317.20117 112.73908 324.34884 115.33398 326.89844 C 125.61798 337.00261 127.73626 346.86707 122.66016 361.01367 C 121.17996 365.13867 117.78569 377.18161 115.11719 387.77734 C 109.73399 409.15222 108.19478 413.88269 97.113281 420.07617 C 83.647681 425.36301 74.777969 422.97378 60.292969 424.13867 C 26.286669 424.13867 23.907216 425.34721 17.603516 430.69141 C 10.708216 437.36663 10.15625 440.68024 10.15625 474.76367 C 10.15625 508.8471 11.594638 510.97603 17.898438 517.35547 C 24.202238 523.73491 26.286669 525.38867 60.292969 525.38867 C 72.483269 525.38867 85.783081 524.78107 97.113281 529.45117 C 108.43718 535.18934 109.73399 540.37318 115.11719 561.74805 C 117.78569 572.34378 121.136 584.33573 122.5625 588.39648 C 130.0076 609.59186 124.0916 618.57673 89.5625 638.51172 C 66.0766 652.07107 60.278686 656.79578 56.742188 665.25977 C 53.384388 673.29624 55.014672 678.04817 70.076172 704.16602 C 85.079072 730.18238 88.978694 735.24095 97.058594 739.15234 C 106.51609 743.73064 108.56851 743.06778 138.41211 725.81836 C 163.73431 711.18226 166.35037 709.95855 173.38477 709.4375 C 184.57297 708.6088 188.86687 711.35387 211.79297 733.99609 C 234.59027 756.51107 238.87753 762.68424 238.89453 773.01953 C 238.90573 779.71941 238.21657 781.22125 223.13477 807.39453 C 205.49777 838.00203 204.32143 841.54195 208.74023 850.66992 C 212.86553 859.19153 217.75465 862.98566 244.53125 878.44531 C 272.01255 894.31177 275.9074 894.93127 285.3125 890.07617 C 292.9189 886.1496 305.58619 864.88211 310.21289 857.88867 C 317.03639 847.57463 325.66976 833.73844 327.75586 830.68945 C 335.85916 818.84554 341.33517 824.19946 376.26367 833.61133 C 412.23797 845.32389 422.99594 846.74205 422.71094 857.89844 L 421.94141 888.01367 C 421.94141 888.01367 420.39406 917.02798 426.47656 925.72852 C 431.46656 935.60539 438.66815 938.61076 450.53125 939.98438 C 460.46605 941.13472 463.23837 941.15019 469.82227 941.41211 C 485.02997 942.01711 518.82049 939.90726 549.68359 934.74219 C 624.84179 922.16411 693.71432 892.47711 755.10742 846.19727 C 819.46522 797.68248 870.87549 731.61859 902.61719 656.63867 C 948.02079 545.96098 948.04525 410.31283 902.40625 292.26367 C 838.20385 141.12504 696.74725 33.494729 534.53125 12.359375 C 515.04676 9.8207096 493.11441 8.520824 475.25 8.4199219 z M 508.70508 54.244141 C 508.98008 54.256641 523.04297 55.167969 523.04297 55.167969 L 546.89258 70.380859 L 539.05664 83.34375 L 522.91797 73.681641 C 522.91797 73.681641 522.15664 106.71953 519.61914 149.70703 C 497.15664 141.40703 480.75586 133.70703 480.75586 133.70703 L 485.99414 120.16797 C 485.99414 120.16797 495.51914 124.68125 505.30664 127.65625 C 505.30664 127.65625 508.10508 91.719141 508.70508 54.244141 z M 645.50586 78.894531 C 645.50586 78.894531 648.70586 113.65703 649.19336 152.70703 L 635.71875 154.86914 C 635.71875 154.86914 615.86875 145.81797 591.71875 136.48047 C 591.71875 136.48047 598.03125 120.49375 598.03125 120.46875 C 618.09375 128.11875 633.25586 134.79297 633.25586 134.79297 C 633.25586 134.79297 633.25664 107.96836 630.30664 80.193359 L 645.50586 78.894531 z M 588.56836 144.91797 C 588.56836 144.91797 614.39375 154.85547 640.53125 166.60547 C 640.53125 166.60547 634.16797 181.36836 634.16797 181.38086 C 607.88047 169.53086 583.04297 160.01953 583.04297 160.01953 L 588.56836 144.91797 z M 732.09375 147.63086 C 732.10625 147.63086 747.43086 150.24414 747.44336 150.24414 C 740.69336 186.85664 733.23047 220.69336 733.23047 220.69336 L 720.53125 219.45703 C 720.53125 219.45703 702.30508 204.98125 683.26758 192.03125 L 692.70508 180.14453 C 692.70508 180.14453 707.71758 189.34453 721.51758 200.76953 C 721.51758 200.76953 727.53125 174.98086 732.09375 147.63086 z M 473.28125 189.13867 C 530.96335 189.13867 582.62311 204.37291 629.87891 235.32031 C 701.88041 282.47338 749.64463 361.26079 757.61133 446.01367 C 762.79593 501.16917 753.52367 552.43445 729.57617 601.01367 C 714.12077 632.36629 696.83468 656.22735 672.48828 679.81836 C 627.34898 723.55732 571.7369 750.2337 508.5293 758.4668 C 490.4774 760.81807 454.46785 760.80173 437.03125 758.43359 C 360.74235 748.07248 292.72931 709.09116 246.66211 649.32617 C 222.21151 617.60536 203.24407 577.34033 194.66797 538.94922 C 168.14527 420.21908 216.8656 300.39947 318.6543 234.02539 C 364.1832 204.337 416.53835 189.13867 473.28125 189.13867 z M 695.14844 213.06055 C 701.64034 212.90978 706.31641 221.00977 699.48047 226.95703 C 690.73047 233.65703 681.30547 221.95547 689.48047 215.35547 C 691.36992 213.79141 693.33071 213.10276 695.14844 213.06055 z M 790.1582 246.4082 C 796.6501 246.25744 801.32812 254.35742 794.49219 260.30469 C 785.74219 267.00469 776.31719 255.30508 784.49219 248.70508 C 786.38164 247.14102 788.34047 246.45042 790.1582 246.4082 z M 832.70508 247.96875 C 838.24258 254.39375 842.48047 262.28125 842.48047 262.28125 C 842.48047 262.28125 801.98047 286.06836 757.48047 309.56836 L 751.13086 297.36914 C 751.13086 297.36914 754.69297 274.48164 754.41797 252.74414 L 768.39258 252.99414 C 768.39258 252.99414 769.01914 270.19375 766.55664 285.53125 C 798.59414 268.94375 832.64258 248.01875 832.70508 247.96875 z M 475.37305 270.88672 C 444.19528 270.61362 413.27677 277.5567 384.53125 291.58984 C 282.90075 341.20431 240.64672 463.44818 290.10742 564.76367 C 321.28422 628.62631 383.0238 671.65295 454.2207 679.13672 C 467.7602 680.5599 492.80105 679.60864 507.65625 677.10547 C 584.58105 664.14329 647.73819 608.16802 669.99609 533.22461 C 676.02339 512.9303 678.05664 498.33541 678.05664 475.38867 C 678.05664 452.44193 676.02339 437.84704 669.99609 417.55273 C 657.84139 376.62734 632.9772 340.16644 598.4043 312.56836 C 584.5116 301.47846 559.42794 288.38558 539.11914 281.62109 C 518.15839 274.63948 496.7052 271.07358 475.37305 270.88672 z M 866.21875 319.55664 L 871.20508 332.51953 C 846.09258 344.41953 817.91797 353.88086 817.91797 353.88086 C 817.91797 353.88086 815.26758 367.20586 807.45508 380.81836 L 881.78125 362.96875 L 886.45508 378.26953 L 790.51758 399.66797 L 789.16797 384.31836 C 789.16797 384.31836 802.06836 363.80625 805.75586 344.34375 C 837.78086 333.18125 866.21875 319.55664 866.21875 319.55664 z M 473.90039 366.02148 C 504.78909 366.02148 529.40843 376.29315 551.51953 398.4043 C 573.63073 420.51547 583.90039 445.13278 583.90039 476.02148 C 583.90039 506.91018 573.63073 531.52945 551.51953 553.64062 C 534.76083 570.39938 518.11132 579.54088 496.14062 584.04688 C 484.15742 586.50459 462.52649 586.45836 450.77539 583.95117 C 429.48079 579.40782 412.7367 570.09418 396.2832 553.64062 C 374.172 531.52945 363.90039 506.91018 363.90039 476.02148 C 363.90039 445.13278 374.172 420.51547 396.2832 398.4043 C 418.3943 376.29315 443.01169 366.02148 473.90039 366.02148 z M 883.38086 441.78125 L 896.16797 448.76953 C 896.16797 448.76953 878.44336 481.38203 864.00586 502.01953 C 832.75586 498.54453 801.66797 495.79297 801.66797 495.79297 L 802.55664 483.35547 C 802.55664 483.35547 817.98008 464.34375 828.20508 445.46875 L 840.36914 451.60547 C 840.36914 451.60547 834.56758 464.21836 819.45508 483.31836 L 857.05664 486.11914 C 857.05664 486.11914 870.88086 465.84375 883.38086 441.78125 z M 852.0957 457.95117 C 858.5876 457.80041 863.26562 465.89844 856.42969 471.8457 C 847.67969 478.5457 838.25469 466.84609 846.42969 460.24609 C 848.31914 458.68203 850.27797 457.99339 852.0957 457.95117 z M 798.90625 541.71875 L 885.54297 568.99414 L 879.44336 583.43164 L 846.48047 612.63086 L 836.36914 602.18164 L 862.84375 578.76953 L 843.53125 572.85547 L 812.48047 597.78125 L 801.91797 588.46875 L 827.73047 568.65625 L 793.64258 557.51953 L 798.90625 541.71875 z M 789.89258 640.40625 L 798.09375 651.46875 C 798.09375 651.46875 777.63047 667.49375 751.04297 677.15625 L 743.08008 663.91797 C 770.35508 653.96797 789.89258 640.40625 789.89258 640.40625 z M 812.10547 652.89453 L 820.23047 667.21875 C 820.23047 667.21875 798.06797 683.81875 773.04297 693.78125 L 764.44336 679.90625 C 789.09336 670.63125 812.10547 652.89453 812.10547 652.89453 z M 835.33008 668.68164 L 843.60547 682.29297 C 843.60547 682.29297 823.16836 696.79414 797.69336 707.86914 L 789.40625 695.36914 C 815.04375 684.29414 835.33008 668.68164 835.33008 668.68164 z M 733.44336 723.09375 L 737.81836 736.65625 C 737.81836 736.65625 721.10547 740.88164 701.73047 740.55664 L 750.31836 803.53125 L 738.13086 813.38086 L 680.28125 734.54297 C 680.28125 734.54297 689.80586 727.24414 689.81836 727.24414 C 714.31836 727.10664 733.44336 723.09375 733.44336 723.09375 z M 739.25 754.95508 C 745.7419 754.80431 750.41797 762.9043 743.58203 768.85156 C 734.83203 775.55156 725.40703 763.85 733.58203 757.25 C 735.47148 755.68594 737.43227 754.99729 739.25 754.95508 z M 634.69336 770.28125 L 649.06836 771.84375 C 649.06836 771.84375 652.03086 821.05625 644.38086 868.09375 C 644.38086 868.09375 636.25586 868.55625 628.44336 867.46875 C 634.53086 831.68125 634.23047 803.09375 634.23047 803.09375 C 634.23047 803.09375 615.00586 798.96836 599.38086 791.69336 L 600.31836 777.46875 C 618.25586 784.85625 634.66797 788.74414 634.66797 788.74414 L 634.69336 770.28125 z M 519.73047 802.01953 L 536.06836 805.84375 L 531.06836 827.09375 C 531.06836 827.09375 546.53047 856.78125 569.35547 889.28125 C 562.00547 892.71875 553.45508 895.61914 553.45508 895.61914 L 525.28125 850.21875 C 525.28125 850.21875 517.63047 875.84336 507.48047 899.75586 C 507.48047 899.75586 490.04375 894.73047 490.03125 894.73047 C 511.69375 849.75547 519.73047 802.01953 519.73047 802.01953 z M 663.34375 833.43359 C 669.83565 833.28283 674.51367 841.38087 667.67773 847.32812 C 658.92773 854.02814 649.50273 842.32852 657.67773 835.72852 C 659.56719 834.16445 661.52602 833.47581 663.34375 833.43359 z M 530.46484 879.74805 C 536.95674 879.59728 541.63281 887.69727 534.79688 893.64453 C 526.04688 900.34453 516.62188 888.64492 524.79688 882.04492 C 526.68633 880.48086 528.64711 879.79026 530.46484 879.74805 z "
       transform="translate(0,1.25)"
       id="path7659" />
  </g>
</svg>
